grf
version=1
nRows=20
nColumns=19
inDegrees=yes
endheader
time	ground_force_1_vx	ground_force_1_vy	ground_force_1_vz	ground_force_1_px	ground_force_1_py	ground_force_1_pz	ground_moment_1_mx	ground_moment_1_my	ground_moment_1_mz	ground_force_2_vx	ground_force_2_vy	ground_force_2_vz	ground_force_2_px	ground_force_2_py	ground_force_2_pz	ground_moment_2_mx	ground_moment_2_my	ground_moment_2_mz
1.730000	15.272845	1537.317725	-492.583017	0.152750	0.000000	-0.815247	0.000000	11.919377	0.000000	-22.401754	1574.061530	493.771568	0.179615	0.000000	-1.593545	0.000000	-16.130466	-0.000000
1.731000	15.126136	1536.898590	-492.521116	0.152835	0.000000	-0.813963	0.000000	11.904719	0.000000	-22.470067	1574.450986	493.892059	0.179927	0.000000	-1.593704	0.000000	-16.138564	-0.000000
1.732000	14.981485	1536.440151	-492.464534	0.152741	0.000000	-0.814587	0.000000	11.889525	0.000000	-22.548511	1574.827472	494.012390	0.180287	0.000000	-1.594329	0.000000	-16.146557	-0.000000
1.733000	14.839660	1535.942653	-492.412641	0.151831	0.000000	-0.811264	0.000000	11.873768	0.000000	-22.637092	1575.189594	494.131968	0.180367	0.000000	-1.593678	0.000000	-16.154458	-0.000000
1.734000	14.701544	1535.406291	-492.364675	0.152597	0.000000	-0.812756	0.000000	11.857404	0.000000	-22.735777	1575.536147	494.250240	0.180305	0.000000	-1.593588	0.000000	-16.162258	-0.000000
1.735000	14.568058	1534.830434	-492.319822	0.152864	0.000000	-0.813926	0.000000	11.840421	0.000000	-22.844462	1575.865959	494.366747	0.180225	0.000000	-1.593989	0.000000	-16.169907	-0.000000
1.736000	14.440120	1534.213792	-492.277251	0.152740	0.000000	-0.812912	0.000000	11.822850	0.000000	-22.962971	1576.177975	494.481154	0.180082	0.000000	-1.593886	0.000000	-16.177317	-0.000000
1.737000	14.318607	1533.554797	-492.236066	0.152831	0.000000	-0.812964	0.000000	11.804746	0.000000	-23.091064	1576.471464	494.593229	0.179975	0.000000	-1.592970	0.000000	-16.184398	-0.000000
1.738000	14.204274	1532.851536	-492.195255	0.153069	0.000000	-0.813550	0.000000	11.786172	0.000000	-23.228449	1576.746205	494.702853	0.180355	0.000000	-1.594537	0.000000	-16.191090	-0.000000
1.739000	14.097726	1532.101782	-492.153675	0.153311	0.000000	-0.813581	0.000000	11.767193	0.000000	-23.374751	1577.002517	494.810116	0.180668	0.000000	-1.594288	0.000000	-16.197368	-0.000000
1.740000	13.999520	1531.303310	-492.110078	0.153419	0.000000	-0.813237	0.000000	11.747863	0.000000	-23.529493	1577.241129	494.915354	0.180674	0.000000	-1.593837	0.000000	-16.203224	-0.000000
1.741000	13.910236	1530.454113	-492.063153	0.153233	0.000000	-0.813210	0.000000	11.728220	0.000000	-23.692106	1577.462945	495.019054	0.181291	0.000000	-1.595356	0.000000	-16.208635	-0.000000
1.742000	13.830386	1529.552576	-492.011535	0.153278	0.000000	-0.813440	-0.000000	11.708292	0.000000	-23.861934	1577.668447	495.121750	0.179655	0.000000	-1.593339	0.000000	-16.213549	-0.000000
1.743000	13.760299	1528.597730	-491.953774	0.153843	0.000000	-0.813214	-0.000000	11.688087	0.000000	-24.038249	1577.856843	495.224002	0.181007	0.000000	-1.593888	0.000000	-16.217894	-0.000000
1.744000	13.700069	1527.589196	-491.888337	0.153241	0.000000	-0.812567	-0.000000	11.667585	0.000000	-24.220247	1578.026010	495.326431	0.180317	0.000000	-1.596153	0.000000	-16.221604	-0.000000
1.745000	13.649557	1526.526862	-491.813691	0.153832	0.000000	-0.813376	-0.000000	11.646749	0.000000	-24.407009	1578.173362	495.429710	0.180929	0.000000	-1.594102	0.000000	-16.224642	-0.000000
1.746000	13.608478	1525.410905	-491.728395	0.153886	0.000000	-0.813054	-0.000000	11.625536	0.000000	-24.597462	1578.296801	495.534537	0.180519	0.000000	-1.593046	0.000000	-16.227006	-0.000000
1.747000	13.576512	1524.241885	-491.631158	0.153323	0.000000	-0.812542	-0.000000	11.603918	0.000000	-24.790439	1578.395271	495.641624	0.181128	0.000000	-1.594110	0.000000	-16.228715	-0.000000
1.748000	13.553323	1523.020474	-491.520881	0.154168	0.000000	-0.813081	-0.000000	11.581898	0.000000	-24.984791	1578.468899	495.751687	0.181175	0.000000	-1.594442	0.000000	-16.229798	-0.000000
1.749000	13.538546	1521.747422	-491.396706	0.153648	0.000000	-0.812660	-0.000000	11.559524	0.000000	-25.179428	1578.518795	495.865437	0.180953	0.000000	-1.594206	0.000000	-16.230283	-0.000000
